<svg width="100" height="100" viewBox="0 0 100 100" fill="none" xmlns="http://www.w3.org/2000/svg">
  <circle cx="50" cy="50" r="48" fill="#704F38"/>
  <path d="M50 30C41.7157 30 35 36.7157 35 45C35 53.2843 41.7157 60 50 60C58.2843 60 65 53.2843 65 45C65 36.7157 58.2843 30 50 30Z" fill="white"/>
  <path d="M50 62C35.6406 62 24 68.9531 24 77.5V82H76V77.5C76 68.9531 64.3594 62 50 62Z" fill="white"/>
  <circle cx="70" cy="30" r="12" fill="#FFD700"/>
  <path d="M70 24L71.545 28.455L76 30L71.545 31.545L70 36L68.455 31.545L64 30L68.455 28.455L70 24Z" fill="#704F38"/>
</svg>
